<svg xmlns="http://www.w3.org/2000/svg" width="1024" height="1024" viewBox="0 0 1024 1024">
<g>
<path d="M 550.00 939.03 C529.59,939.88 506.85,940.07 502.50,939.43 C501.40,939.27 488.35,938.63 473.50,938.00 C458.65,937.37 442.67,936.17 438.00,935.34 C433.33,934.51 425.90,933.44 421.50,932.95 C417.10,932.47 409.45,931.41 404.50,930.59 C399.55,929.77 391.45,928.45 386.50,927.65 C374.40,925.69 368.00,923.98 368.00,922.71 C368.00,922.14 367.72,921.95 367.37,922.30 C367.02,922.65 365.81,921.76 364.69,920.33 C362.70,917.80 362.70,917.70 364.51,916.37 C365.55,915.61 368.87,914.99 371.94,914.97 C375.00,914.95 378.29,914.34 379.25,913.61 C381.05,912.24 381.58,910.91 380.25,911.12 C379.84,911.18 379.16,911.13 378.75,910.99 C378.34,910.86 377.66,910.66 377.25,910.54 C376.84,910.43 375.29,909.83 373.82,909.22 C372.34,908.60 365.37,905.78 358.32,902.95 C319.61,887.40 271.16,858.95 238.53,832.59 C181.15,786.25 138.29,734.45 109.05,676.12 C103.73,665.49 101.76,661.00 102.43,661.00 C102.64,661.00 104.48,664.26 106.53,668.25 C111.17,677.29 111.74,678.00 114.38,678.00 C115.56,678.00 117.73,679.12 119.22,680.50 C120.70,681.88 122.39,683.00 122.97,683.00 C123.54,683.00 125.83,684.32 128.06,685.92 C135.35,691.21 140.91,696.95 156.70,715.50 C170.33,731.51 178.96,740.50 184.00,743.93 C185.93,745.24 188.45,747.26 189.60,748.41 C193.34,752.13 198.54,756.64 200.17,757.58 C201.05,758.09 204.41,760.91 207.64,763.85 C210.86,766.80 215.52,771.00 218.00,773.19 C224.77,779.18 246.29,796.12 248.00,796.80 C248.82,797.13 253.09,799.78 257.47,802.70 C261.86,805.61 265.98,808.00 266.63,808.00 C267.28,808.00 269.77,809.63 272.16,811.63 C276.96,815.65 280.68,817.65 281.62,816.71 C282.46,815.88 277.32,811.38 272.75,808.95 C270.69,807.86 269.00,806.57 269.00,806.08 C269.00,805.60 266.82,803.81 264.14,802.09 C261.47,800.38 258.44,798.02 257.39,796.85 C256.35,795.68 252.35,792.03 248.50,788.74 C223.94,767.76 206.93,750.43 206.54,746.00 C206.52,745.72 205.50,744.11 204.29,742.40 L 202.08 739.30 L 205.30 739.44 C207.07,739.52 209.08,739.93 209.78,740.36 C210.47,740.79 212.04,741.04 213.27,740.92 C215.80,740.66 219.84,741.55 225.12,743.53 C227.11,744.27 229.67,744.64 230.80,744.34 C231.94,744.04 234.41,744.31 236.29,744.93 C238.17,745.55 240.56,746.23 241.60,746.44 C246.90,747.49 249.92,748.50 254.22,750.64 C259.69,753.38 260.72,753.57 259.02,751.53 C258.06,750.37 258.52,750.42 261.15,751.75 C264.55,753.47 277.44,754.52 276.50,752.99 C276.22,752.55 278.15,752.75 280.79,753.45 C283.44,754.14 287.08,754.50 288.89,754.23 C291.07,753.91 293.84,754.52 297.07,756.03 C300.89,757.82 302.46,758.10 304.23,757.31 C305.92,756.55 307.08,756.67 308.78,757.78 C310.03,758.60 313.63,759.37 316.78,759.49 C319.93,759.61 323.17,759.93 324.00,760.19 C324.83,760.46 327.61,761.36 330.18,762.19 C333.99,763.42 335.11,763.46 336.18,762.43 C337.21,761.43 338.70,761.39 343.00,762.24 C346.02,762.84 348.78,763.74 349.11,764.25 C349.45,764.76 350.57,765.05 351.61,764.90 C352.65,764.75 354.85,764.95 356.50,765.33 C358.15,765.72 363.55,766.46 368.50,766.98 C373.45,767.51 381.77,768.68 387.00,769.58 C392.23,770.49 397.85,771.36 399.50,771.52 C401.15,771.68 407.23,772.56 413.00,773.48 C423.83,775.20 446.04,775.76 460.50,774.67 C473.81,773.67 489.95,769.79 506.90,763.53 C511.59,761.80 520.00,756.21 520.00,754.83 C520.00,753.75 513.17,753.80 505.00,754.96 C491.64,756.84 453.87,758.08 441.41,757.05 C418.65,755.16 381.02,746.42 363.50,738.96 C345.04,731.10 327.97,720.48 329.58,717.87 C329.87,717.40 329.46,717.27 328.67,717.57 C327.87,717.88 326.41,717.07 325.35,715.72 C324.31,714.40 321.67,712.13 319.48,710.69 C311.14,705.17 303.37,699.38 300.00,696.15 C297.74,693.98 298.80,694.54 303.00,697.75 C309.07,702.37 318.90,708.98 323.50,711.54 C324.60,712.15 329.33,714.83 334.00,717.49 C364.11,734.64 397.11,744.75 430.30,746.98 C475.48,750.03 523.16,734.54 560.10,704.82 C573.29,694.21 586.30,678.42 590.45,668.00 C594.84,656.94 593.11,637.77 586.50,624.34 C578.07,607.21 560.30,599.42 545.50,606.37 C540.30,608.81 532.08,616.79 528.15,623.22 C525.95,626.82 525.91,627.23 527.07,636.81 C527.97,644.19 527.99,648.27 527.16,652.99 C522.87,677.35 501.30,693.15 477.75,689.19 C452.85,685.00 437.91,664.91 436.35,633.50 C434.32,592.57 454.67,552.33 489.95,527.55 C543.40,490.00 624.34,500.91 665.96,551.27 C673.45,560.33 682.89,576.10 686.92,586.28 C702.95,626.76 699.78,678.75 678.55,723.50 C673.34,734.49 666.09,747.06 663.42,749.73 C662.64,750.51 662.00,751.31 662.00,751.51 C662.00,752.37 677.30,745.48 687.94,739.85 C724.84,720.31 756.07,692.18 776.61,659.98 C797.39,627.41 814.70,611.05 837.50,602.46 C862.36,593.08 887.65,595.97 906.62,610.34 C916.69,617.97 922.76,627.03 927.15,641.01 C930.38,651.32 930.40,669.65 927.19,681.66 C913.70,732.05 865.44,795.94 808.00,839.46 C768.91,869.07 726.82,890.53 669.50,910.09 C652.75,915.80 649.83,917.08 658.55,914.88 C662.22,913.96 663.58,914.05 666.41,915.39 C668.84,916.54 670.52,916.75 672.22,916.11 C674.94,915.07 680.00,915.77 680.00,917.18 C680.00,917.69 680.49,917.81 681.10,917.44 C682.99,916.27 680.38,920.31 677.89,922.40 C675.36,924.53 666.97,927.31 656.50,929.49 C650.20,930.80 644.63,931.58 617.50,934.93 C608.21,936.07 580.64,937.75 550.00,939.03 ZM 699.62 451.49 C688.38,453.40 662.42,453.35 651.55,451.39 C640.25,449.35 623.88,443.64 614.22,438.38 C575.20,417.11 552.17,379.36 550.55,334.00 C550.12,322.07 550.36,321.33 551.57,330.75 C552.32,336.50 555.16,338.14 558.67,334.84 L 561.16 332.50 L 563.33 335.30 C564.52,336.84 567.53,342.01 570.00,346.80 C575.85,358.11 577.76,358.67 581.00,350.01 C582.78,345.25 584.39,343.00 588.39,339.67 C593.43,335.47 600.38,330.45 603.83,328.50 C604.80,327.95 607.60,325.92 610.05,324.00 C612.49,322.08 615.35,319.83 616.41,319.00 C620.69,315.64 623.81,312.34 625.39,309.50 C626.30,307.85 629.52,303.12 632.53,299.00 C635.54,294.88 638.75,290.15 639.65,288.51 C640.56,286.86 643.09,283.15 645.26,280.27 C647.67,277.08 648.99,274.41 648.62,273.46 C648.28,272.57 648.44,272.16 649.00,272.50 C651.06,273.77 653.41,284.65 653.42,293.00 C653.43,299.83 652.78,303.64 650.09,312.37 C647.38,321.16 646.84,324.32 647.26,328.93 C648.27,340.05 656.20,350.50 667.50,355.62 C679.68,361.13 695.00,358.57 700.74,350.06 C703.92,345.34 705.07,340.79 705.68,330.50 C706.67,313.88 701.85,294.60 691.63,274.31 C684.57,260.28 678.18,251.35 666.22,238.75 C657.42,229.49 656.27,227.72 662.92,233.70 C664.26,234.90 665.70,235.68 666.11,235.43 C666.52,235.18 667.13,235.41 667.46,235.94 C668.51,237.63 670.81,235.98 670.27,233.93 C669.60,231.37 676.43,225.00 679.85,225.00 C681.57,225.00 684.46,227.13 689.35,232.00 C696.71,239.33 698.71,240.50 697.51,236.75 C695.77,231.31 695.78,227.90 697.54,225.96 C698.51,224.88 699.76,224.00 700.31,224.00 C700.86,224.00 703.64,222.90 706.49,221.55 C712.19,218.85 714.82,218.19 723.00,217.38 C726.03,217.08 729.62,216.71 731.00,216.56 C732.38,216.40 735.08,216.87 737.00,217.59 C740.81,219.02 753.00,220.12 753.00,219.04 C753.00,218.33 762.84,214.01 764.52,213.98 C765.06,213.97 766.55,212.86 767.83,211.51 C769.11,210.16 771.76,208.61 773.72,208.07 C775.68,207.53 778.38,206.05 779.72,204.79 C781.06,203.53 782.24,202.64 782.33,202.82 C782.42,203.00 783.62,202.72 785.00,202.21 C786.38,201.70 790.14,200.31 793.36,199.12 C796.96,197.78 800.42,197.15 802.36,197.47 C804.09,197.76 806.62,198.18 808.00,198.40 C810.74,198.84 817.96,202.48 825.00,206.97 C827.47,208.55 830.18,209.88 831.02,209.92 C831.85,209.96 834.23,211.15 836.31,212.57 C841.18,215.88 843.61,215.49 843.18,211.48 C842.75,207.38 837.81,196.96 832.46,188.83 C830.01,185.11 828.00,181.71 828.00,181.28 C828.00,180.85 826.26,177.89 824.13,174.70 C820.89,169.81 820.35,168.27 820.73,164.96 C821.12,161.60 820.74,160.59 818.17,158.01 C816.51,156.36 815.49,155.00 815.91,155.00 C817.35,155.00 840.66,179.55 850.65,191.59 C882.48,229.94 910.82,275.10 919.49,301.28 C924.88,317.55 923.60,333.84 915.67,350.00 C912.36,356.74 909.74,360.27 903.00,367.04 C893.86,376.21 887.77,380.04 878.47,382.47 C862.00,386.75 845.48,382.08 831.93,369.30 C822.13,360.05 816.29,350.10 804.00,321.75 C802.15,317.49 800.27,314.00 799.82,314.00 C799.37,314.00 798.99,318.84 798.98,324.75 C798.92,360.06 786.08,394.08 764.00,417.40 C746.44,435.95 725.40,447.09 699.62,451.49 ZM 460.69 650.75 C462.01,652.54 463.98,654.00 465.05,654.00 C465.11,654.00 465.17,654.00 465.23,654.00 C465.98,654.00 466.48,654.00 466.69,653.76 C467.11,653.28 466.45,651.88 464.53,647.78 L 464.30 647.28 C461.27,640.80 461.03,639.78 462.36,638.85 C462.93,638.45 462.89,636.61 462.25,634.10 C461.06,629.39 461.42,629.13 464.85,632.25 C466.21,633.49 467.04,634.01 466.71,633.42 C466.37,632.82 466.70,632.33 467.45,632.33 C468.20,632.33 468.60,632.87 468.35,633.52 C468.10,634.17 469.16,635.52 470.70,636.53 C473.45,638.31 473.47,638.31 472.03,636.42 C470.95,635.01 471.23,635.09 473.10,636.76 C474.50,638.00 476.02,638.68 476.48,638.26 C476.94,637.84 477.03,638.01 476.67,638.64 C475.42,640.82 478.40,641.61 483.81,640.52 C486.74,639.94 488.80,639.13 488.40,638.73 C488.00,638.33 489.52,638.00 491.77,638.00 C495.69,638.00 499.07,636.05 495.31,635.96 C494.14,635.93 494.76,635.25 497.05,634.03 C500.20,632.37 500.63,631.67 500.84,627.83 C500.97,625.42 501.73,623.00 502.55,622.38 C503.37,621.76 503.78,620.60 503.47,619.79 C503.17,618.99 503.34,616.46 503.85,614.17 C504.60,610.82 504.51,610.00 503.39,610.00 C502.40,610.00 502.58,609.42 504.00,608.00 C505.49,606.51 506.00,604.66 506.01,600.75 C506.01,593.28 507.60,588.53 511.16,585.30 C516.31,580.64 521.00,575.63 521.00,574.80 C521.00,572.59 531.93,562.70 536.94,560.39 C540.00,558.97 544.30,556.98 546.50,555.97 C552.82,553.06 576.68,552.90 588.00,555.68 C596.83,557.86 602.78,559.78 604.50,561.00 C605.05,561.40 606.96,561.99 608.74,562.33 C612.69,563.08 625.22,569.13 630.00,572.59 C631.92,573.99 634.08,576.23 634.78,577.57 C635.49,578.90 636.41,580.00 636.84,580.00 C637.69,580.00 638.40,580.66 647.75,590.21 C652.62,595.18 654.87,598.56 657.95,605.54 C661.85,614.37 666.76,621.00 669.40,621.00 C671.03,621.00 673.34,615.80 673.33,612.14 C673.29,596.39 666.82,574.97 657.73,560.50 C644.87,540.03 620.76,524.35 591.52,517.45 C582.03,515.21 546.76,515.76 537.00,518.30 C536.17,518.51 534.19,519.05 532.59,519.49 C530.98,519.94 528.51,520.38 527.09,520.49 C525.66,520.59 523.23,521.20 521.68,521.84 C520.14,522.48 518.28,523.00 517.56,523.00 C516.83,523.00 513.73,524.15 510.65,525.56 C507.57,526.97 504.18,528.19 503.10,528.27 C502.02,528.35 501.34,528.75 501.60,529.16 C501.85,529.57 501.21,530.35 500.17,530.91 C498.80,531.64 497.75,531.54 496.39,530.53 C494.62,529.23 494.61,529.10 496.25,528.46 C497.73,527.89 498.84,525.00 497.58,525.00 C496.18,525.00 494.09,526.33 494.48,526.97 C494.74,527.39 493.96,528.58 492.74,529.62 C490.91,531.18 490.76,531.21 491.89,529.75 C492.71,528.70 492.82,528.00 492.18,528.00 C490.14,528.00 489.82,530.14 491.57,532.08 C493.26,533.95 493.26,534.09 491.42,535.48 C490.36,536.28 489.20,536.95 488.83,536.97 C488.46,536.99 487.37,537.30 486.41,537.67 C485.00,538.21 484.80,537.98 485.37,536.48 C486.06,534.69 486.00,534.69 484.15,536.37 C482.66,537.71 482.10,537.81 481.77,536.81 C481.18,535.05 472.00,543.81 472.00,546.14 C472.00,547.10 471.59,548.14 471.09,548.45 C470.59,548.76 470.39,550.36 470.65,552.00 C470.92,553.74 470.68,555.00 470.06,555.00 C469.48,555.00 469.00,554.56 469.00,554.02 C469.00,553.48 467.46,553.82 465.58,554.77 C463.45,555.84 462.50,556.86 463.08,557.45 C464.41,558.83 464.21,563.64 462.75,565.18 C462.06,565.91 461.37,567.62 461.22,569.00 C461.07,570.38 460.51,571.65 459.97,571.83 C458.65,572.29 454.83,585.16 454.66,589.76 C454.58,591.82 454.88,594.62 455.32,596.00 C455.91,597.83 455.86,598.10 455.11,597.01 C454.29,595.82 453.83,595.77 452.84,596.76 C452.16,597.44 451.90,598.00 452.28,598.00 C452.65,598.00 452.44,599.24 451.81,600.75 C451.18,602.26 450.53,605.75 450.37,608.50 C450.21,611.25 449.89,615.75 449.66,618.50 C448.91,627.69 453.47,641.04 460.69,650.75 ZM 669.94 375.70 C675.33,377.83 683.18,378.64 686.42,377.39 C690.03,376.01 687.50,373.96 677.25,369.97 C662.15,364.08 654.83,359.74 644.69,350.67 C639.85,346.33 635.64,343.03 635.33,343.34 C634.42,344.24 639.10,353.16 642.86,357.70 C647.74,363.59 660.11,371.81 669.94,375.70 ZM 458.92 615.12 C460.49,621.71 460.16,623.84 457.97,621.27 C457.11,620.27 456.56,618.06 456.72,616.20 C456.89,614.00 456.62,613.12 455.89,613.57 C455.15,614.03 455.01,613.55 455.46,612.13 C455.98,610.48 455.79,610.14 454.57,610.61 C453.55,611.00 453.00,610.65 453.00,609.61 C453.00,608.72 453.45,608.00 454.00,608.00 C454.55,608.00 455.00,607.21 455.01,606.25 C455.02,603.36 457.42,608.81 458.92,615.12 ZM 874.00 615.00 C874.00,615.55 875.46,615.99 877.25,615.98 C879.72,615.97 880.14,615.74 879.00,615.00 C877.03,613.73 874.00,613.73 874.00,615.00 Z" fill="rgb(65,161,178)"/>
<path d="M 110.50 678.99 C109.65,677.35 108.81,675.71 107.97,674.06 C104.50,667.22 101.67,661.03 101.67,660.31 C101.67,659.59 101.27,659.00 100.77,659.00 C100.28,659.00 100.16,658.55 100.50,658.00 C100.84,657.45 100.61,657.00 100.00,657.00 C99.39,657.00 99.16,656.55 99.50,656.00 C99.84,655.45 99.66,655.00 99.09,655.00 C98.53,655.00 98.32,654.33 98.64,653.50 C98.95,652.67 98.69,652.00 98.05,652.00 C97.41,652.00 97.16,651.55 97.50,651.00 C97.84,650.45 97.61,650.00 97.00,650.00 C96.39,650.00 96.16,649.55 96.50,649.00 C96.84,648.45 96.59,648.00 95.95,648.00 C95.31,648.00 95.05,647.33 95.36,646.50 C95.68,645.67 95.47,645.00 94.91,645.00 C94.34,645.00 94.16,644.55 94.50,644.00 C94.84,643.45 94.61,643.00 94.00,643.00 C93.39,643.00 93.16,642.55 93.50,642.00 C93.84,641.45 93.61,641.00 93.00,641.00 C92.39,641.00 92.16,640.55 92.50,640.00 C92.84,639.45 92.59,639.00 91.95,639.00 C91.31,639.00 91.05,638.33 91.36,637.50 C91.68,636.67 91.47,636.00 90.91,636.00 C90.34,636.00 90.16,635.55 90.50,635.00 C90.84,634.45 90.59,634.00 89.95,634.00 C89.31,634.00 89.05,633.33 89.36,632.50 C89.68,631.67 89.45,631.00 88.86,631.00 C88.27,631.00 88.05,630.33 88.36,629.50 C88.68,628.67 88.47,628.00 87.91,628.00 C87.34,628.00 87.14,627.59 87.45,627.09 C87.76,626.58 87.57,626.02 87.04,625.84 C86.50,625.65 85.93,624.38 85.78,623.00 C85.63,621.62 85.21,620.28 84.85,620.00 C84.49,619.72 84.04,618.60 83.85,617.50 C83.66,616.40 83.23,615.28 82.90,615.00 C82.10,614.33 75.70,592.90 72.60,580.50 C56.44,515.92 57.37,439.91 75.18,369.50 C91.36,305.55 119.76,248.96 160.50,199.50 C244.54,97.49 369.69,34.66 495.50,31.33 C570.51,29.35 640.66,44.42 706.00,76.56 C733.76,90.21 755.13,103.50 778.00,121.32 C794.03,133.81 800.14,139.18 817.44,156.11 C816.63,155.40 816.09,155.00 815.91,155.00 C815.49,155.00 816.51,156.36 818.17,158.01 C820.74,160.59 821.12,161.60 820.73,164.96 C820.35,168.27 820.89,169.81 824.13,174.70 C826.26,177.89 828.00,180.85 828.00,181.28 C827.37,180.19 826.85,179.24 826.50,178.54 C822.67,170.98 803.56,154.05 780.71,137.98 C776.43,134.96 770.58,130.78 767.71,128.68 C757.37,121.11 743.25,112.15 733.97,107.26 C714.57,97.06 704.36,92.22 699.50,90.94 C696.75,90.22 690.00,87.87 684.50,85.74 C679.00,83.60 672.70,81.46 670.50,80.99 C668.30,80.53 665.76,79.85 664.85,79.50 C663.94,79.15 662.88,79.38 662.50,80.01 C661.46,81.68 671.43,90.37 678.50,93.97 C681.80,95.66 688.78,99.79 694.00,103.16 C699.22,106.54 705.75,110.42 708.50,111.80 C711.25,113.17 715.09,115.54 717.03,117.06 C718.97,118.57 723.10,121.02 726.21,122.49 C729.35,123.98 735.60,128.58 740.26,132.84 C751.07,142.72 751.16,142.81 753.80,147.33 C756.91,152.68 757.00,163.88 753.96,167.55 C753.30,168.35 753.15,169.01 753.63,169.03 C754.11,169.05 753.63,169.72 752.56,170.53 C751.49,171.34 750.98,172.00 751.43,172.00 C751.87,172.00 751.06,173.54 749.62,175.43 C748.18,177.32 747.00,179.30 747.00,179.83 C747.00,181.33 739.91,185.25 736.00,185.93 C732.68,186.50 732.46,186.79 731.76,191.52 C731.36,194.26 730.68,198.28 730.25,200.46 C729.64,203.60 729.94,205.34 731.71,208.96 C732.93,211.46 733.95,214.22 733.97,215.09 C733.99,216.08 735.71,217.15 738.24,217.97 C737.77,217.85 737.35,217.72 737.00,217.59 C735.08,216.87 732.38,216.40 731.00,216.56 C729.62,216.71 726.03,217.08 723.00,217.38 C714.82,218.19 712.19,218.85 706.49,221.55 C703.64,222.90 700.86,224.00 700.31,224.00 C699.76,224.00 698.51,224.88 697.54,225.96 C695.78,227.90 695.77,231.31 697.51,236.75 C698.71,240.50 696.71,239.33 689.35,232.00 C684.46,227.13 681.57,225.00 679.85,225.00 C676.43,225.00 669.60,231.37 670.27,233.93 C670.81,235.98 668.51,237.63 667.46,235.94 C667.13,235.41 666.52,235.18 666.11,235.43 C665.70,235.68 664.26,234.90 662.92,233.70 C656.27,227.72 657.42,229.49 666.22,238.75 C667.27,239.85 668.27,240.93 669.23,241.98 C668.97,241.70 668.71,241.41 668.44,241.13 C640.65,211.59 602.41,192.68 555.66,185.34 C541.67,183.15 498.34,182.83 484.50,184.82 C444.41,190.59 409.34,201.81 374.04,220.16 C353.49,230.85 321.95,252.10 313.56,260.92 L 310.62 264.00 L 315.56 262.56 C324.95,259.82 342.55,256.91 355.82,255.91 C379.36,254.13 404.17,258.09 423.85,266.77 C459.74,282.61 489.04,318.72 499.50,360.01 C506.91,389.22 506.93,420.77 499.56,446.21 C494.70,462.97 484.13,481.55 473.51,492.00 C463.09,502.25 461.14,504.00 460.10,504.00 C459.53,504.00 458.58,504.91 457.99,506.03 C457.39,507.14 456.47,507.79 455.94,507.46 C455.42,507.14 454.72,507.58 454.39,508.44 C454.06,509.30 453.16,510.00 452.39,510.00 C451.63,510.00 451.00,510.45 451.00,511.00 C451.00,511.55 450.33,512.00 449.50,512.00 C448.67,512.00 448.00,512.45 448.00,513.00 C448.00,513.55 447.33,514.00 446.50,514.00 C445.67,514.00 445.00,514.44 445.00,514.98 C445.00,515.52 443.88,516.24 442.50,516.59 C441.12,516.93 440.00,517.56 440.00,517.99 C440.00,518.41 438.76,519.23 437.25,519.80 C435.74,520.37 430.90,522.26 426.50,524.00 C422.10,525.74 417.83,527.30 417.00,527.48 C416.17,527.65 412.80,528.57 409.50,529.52 C400.15,532.19 384.88,533.84 368.66,533.92 C317.90,534.18 288.35,510.84 290.27,472.00 C290.95,458.17 294.17,450.87 304.00,440.88 C312.05,432.69 318.04,429.08 327.72,426.57 C336.65,424.26 342.13,424.61 357.57,428.50 C372.97,432.38 379.01,432.77 387.07,430.41 C413.96,422.55 421.11,393.07 401.27,371.86 C392.22,362.19 380.87,358.05 363.29,358.02 C336.28,357.97 300.56,374.54 274.47,399.23 C241.45,430.48 223.01,469.46 218.98,516.50 C214.79,565.45 233.40,622.46 266.96,663.44 C291.20,693.03 333.45,721.29 373.29,735.32 C359.82,730.66 346.66,724.70 334.00,717.49 C329.33,714.83 324.60,712.15 323.50,711.54 C318.90,708.98 309.07,702.37 303.00,697.75 C298.80,694.54 297.74,693.98 300.00,696.15 C303.37,699.38 311.14,705.17 319.48,710.69 C321.67,712.13 324.31,714.40 325.35,715.72 C326.41,717.07 327.87,717.88 328.67,717.57 C329.46,717.27 329.87,717.40 329.58,717.87 C328.43,719.73 336.78,725.66 348.36,731.77 C339.26,727.31 329.10,722.23 326.50,720.76 C307.77,710.20 291.67,700.14 287.65,696.48 C286.63,695.55 283.93,693.51 281.65,691.94 C267.79,682.39 229.43,642.02 219.27,626.30 C213.06,616.69 202.86,603.00 199.09,599.24 C196.31,596.46 195.52,596.10 194.84,597.32 C193.66,599.43 198.04,613.87 203.93,627.31 C206.63,633.47 209.14,639.62 209.52,641.00 C210.68,645.22 219.12,659.20 224.01,665.00 C226.57,668.03 230.10,673.05 231.86,676.18 C233.62,679.30 238.13,684.99 241.89,688.81 C246.85,693.87 248.48,696.18 247.88,697.25 C247.33,698.24 247.71,699.33 249.02,700.52 C250.11,701.51 251.00,703.09 251.00,704.04 C251.00,704.99 252.14,706.52 253.53,707.43 C254.92,708.34 255.79,709.54 255.45,710.09 C255.11,710.64 255.35,711.71 255.98,712.48 C256.61,713.24 257.22,715.47 257.32,717.43 C257.42,719.39 257.82,720.99 258.22,721.00 C258.61,721.00 258.68,721.67 258.36,722.50 C258.04,723.33 258.33,724.00 259.00,724.00 C259.71,724.00 259.95,724.67 259.60,725.61 C258.82,727.63 262.97,734.66 263.98,733.03 C264.46,732.26 265.45,732.69 267.04,734.34 C268.34,735.68 269.99,736.56 270.71,736.28 C271.61,735.93 271.82,736.32 271.36,737.51 C270.80,738.97 271.00,739.07 272.67,738.18 C274.32,737.29 275.27,737.75 278.57,741.00 C284.82,747.16 286.00,748.84 286.00,751.50 C286.00,753.69 286.44,754.00 289.47,754.00 C290.12,754.00 290.95,754.11 291.87,754.30 C290.78,754.12 289.79,754.10 288.89,754.23 C287.08,754.50 283.44,754.14 280.79,753.45 C278.15,752.75 276.22,752.55 276.50,752.99 C277.44,754.52 264.55,753.47 261.15,751.75 C258.52,750.42 258.06,750.37 259.02,751.53 C260.72,753.57 259.69,753.38 254.22,750.64 C249.92,748.50 246.90,747.49 241.60,746.44 C240.56,746.23 238.17,745.55 236.29,744.93 C234.41,744.31 231.94,744.04 230.80,744.34 C229.67,744.64 227.11,744.27 225.12,743.53 C219.84,741.55 215.80,740.66 213.27,740.92 C212.04,741.04 210.47,740.79 209.78,740.36 C209.08,739.93 207.07,739.52 205.30,739.44 L 202.08 739.30 L 204.29 742.40 C205.50,744.11 206.52,745.72 206.54,746.00 C206.77,748.60 212.74,755.66 222.61,765.30 C218.63,762.08 212.70,757.35 204.00,750.47 C196.02,744.15 180.53,728.98 162.75,710.07 C154.65,701.46 151.15,699.66 155.80,706.50 C160.77,713.83 167.34,722.46 170.62,726.00 C172.41,727.92 175.08,730.85 176.56,732.50 C178.05,734.15 184.31,740.67 190.48,747.00 C197.54,754.23 202.45,759.07 208.39,764.54 C208.13,764.31 207.88,764.08 207.64,763.85 C204.41,760.91 201.05,758.09 200.17,757.58 C198.54,756.64 193.34,752.13 189.60,748.41 C188.45,747.26 185.93,745.24 184.00,743.93 C178.96,740.50 170.33,731.51 156.70,715.50 C140.91,696.95 135.35,691.21 128.06,685.92 C125.83,684.32 123.54,683.00 122.97,683.00 C122.39,683.00 120.70,681.88 119.22,680.50 C117.73,679.12 115.56,678.00 114.38,678.00 C111.74,678.00 111.17,677.29 106.53,668.25 C104.48,664.26 102.64,661.00 102.43,661.00 C101.76,661.00 103.73,665.49 109.05,676.12 C109.53,677.08 110.02,678.03 110.50,678.99 ZM 615.47 316.75 C615.07,318.05 615.19,319.00 615.76,319.00 C616.16,319.00 616.89,318.58 617.77,317.90 C617.33,318.26 616.88,318.63 616.41,319.00 C615.35,319.83 612.49,322.08 610.05,324.00 C607.60,325.92 604.80,327.95 603.83,328.50 C600.38,330.45 593.43,335.47 588.39,339.67 C584.39,343.00 582.78,345.25 581.00,350.01 C577.76,358.67 575.85,358.11 570.00,346.80 C567.53,342.01 564.52,336.84 563.33,335.30 L 561.16 332.50 L 558.67 334.84 C555.16,338.14 552.32,336.50 551.57,330.75 C551.15,327.46 550.85,325.42 550.65,324.65 C550.95,304.39 553.45,293.80 561.15,278.01 C565.25,269.61 567.58,266.23 572.88,261.00 C580.30,253.69 586.84,249.80 595.53,247.53 C617.49,241.81 639.59,252.81 649.01,272.50 L 649.00 272.50 C648.44,272.16 648.28,272.57 648.62,273.46 C648.99,274.41 647.67,277.08 645.26,280.27 C643.09,283.15 640.56,286.86 639.65,288.51 C638.75,290.15 635.54,294.88 632.53,299.00 C641.67,286.36 642.24,283.93 639.84,276.90 C636.43,266.86 622.96,257.97 614.98,260.51 C613.19,261.07 612.90,261.73 613.37,264.08 C613.68,265.66 615.05,268.65 616.40,270.73 C619.29,275.16 622.70,284.98 623.13,290.10 C623.31,292.32 622.74,294.75 621.64,296.43 C620.65,297.93 620.11,299.86 620.44,300.71 C620.77,301.56 620.56,302.82 619.99,303.51 C619.42,304.20 618.33,306.96 617.57,309.63 C616.81,312.31 615.86,315.51 615.47,316.75 ZM 460.69 650.75 C453.47,641.04 448.91,627.69 449.66,618.50 C449.89,615.75 450.21,611.25 450.37,608.50 C450.53,605.75 451.18,602.26 451.81,600.75 C452.44,599.24 452.65,598.00 452.28,598.00 C451.90,598.00 452.16,597.44 452.84,596.76 C453.83,595.77 454.29,595.82 455.11,597.01 C455.86,598.10 455.91,597.83 455.32,596.00 C454.88,594.62 454.58,591.82 454.66,589.76 C454.83,585.16 458.65,572.29 459.97,571.83 C460.51,571.65 461.07,570.38 461.22,569.00 C461.37,567.62 462.06,565.91 462.75,565.18 C464.21,563.64 464.41,558.83 463.08,557.45 C462.50,556.86 463.45,555.84 465.58,554.77 C467.46,553.82 469.00,553.48 469.00,554.02 C469.00,554.56 469.48,555.00 470.06,555.00 C470.68,555.00 470.92,553.74 470.65,552.00 C470.39,550.36 470.59,548.76 471.09,548.45 C471.59,548.14 472.00,547.10 472.00,546.14 C472.00,543.81 481.18,535.05 481.77,536.81 C482.10,537.81 482.66,537.71 484.15,536.37 C486.00,534.69 486.06,534.69 485.37,536.48 C484.80,537.98 485.00,538.21 486.41,537.67 C487.37,537.30 488.46,536.99 488.83,536.97 C489.20,536.95 490.36,536.28 491.42,535.48 C493.26,534.09 493.26,533.95 491.57,532.08 C489.82,530.14 490.14,528.00 492.18,528.00 C492.82,528.00 492.71,528.70 491.89,529.75 C490.76,531.21 490.91,531.18 492.74,529.62 C493.96,528.58 494.74,527.39 494.48,526.97 C494.09,526.33 496.18,525.00 497.58,525.00 C498.84,525.00 497.73,527.89 496.25,528.46 C494.61,529.10 494.62,529.23 496.39,530.53 C497.75,531.54 498.80,531.64 500.17,530.91 C501.21,530.35 501.85,529.57 501.60,529.16 C501.34,528.75 502.02,528.35 503.10,528.27 C504.18,528.19 507.57,526.97 510.65,525.56 C513.73,524.15 516.83,523.00 517.56,523.00 C518.28,523.00 520.14,522.48 521.68,521.84 C523.23,521.20 525.66,520.59 527.09,520.49 C528.51,520.38 530.98,519.94 532.59,519.49 C534.19,519.05 536.17,518.51 537.00,518.30 C542.66,516.83 556.92,516.02 569.75,516.05 C578.41,516.00 587.40,516.48 591.50,517.44 C587.51,516.51 579.00,516.06 569.75,516.05 C563.33,516.08 557.10,516.41 553.16,517.04 C531.56,520.55 502.95,536.41 503.02,544.84 C503.05,548.37 506.52,555.88 508.46,556.62 C510.14,557.27 510.60,560.00 509.03,560.00 C508.50,560.00 508.32,560.67 508.64,561.50 C509.38,563.43 512.00,563.46 512.00,561.53 C512.00,558.90 516.37,561.44 518.14,565.10 C519.05,566.97 520.17,568.43 520.64,568.35 C521.11,568.27 522.29,568.62 523.25,569.13 C524.11,569.59 524.84,569.55 525.85,568.78 C523.09,571.40 521.00,573.83 521.00,574.80 C521.00,575.63 516.31,580.64 511.16,585.30 C507.60,588.53 506.01,593.28 506.01,600.75 C506.00,604.66 505.49,606.51 504.00,608.00 C502.58,609.42 502.40,610.00 503.39,610.00 C504.51,610.00 504.60,610.82 503.85,614.17 C503.34,616.46 503.17,618.99 503.47,619.79 C503.78,620.60 503.37,621.76 502.55,622.38 C501.73,623.00 500.97,625.42 500.84,627.83 C500.63,631.67 500.20,632.37 497.05,634.03 C494.76,635.25 494.14,635.93 495.31,635.96 C499.07,636.05 495.69,638.00 491.77,638.00 C489.52,638.00 488.00,638.33 488.40,638.73 C488.80,639.13 486.74,639.94 483.81,640.52 C478.40,641.61 475.42,640.82 476.67,638.64 C477.03,638.01 476.94,637.84 476.48,638.26 C476.02,638.68 474.50,638.00 473.10,636.76 C471.23,635.09 470.95,635.01 472.03,636.42 C473.47,638.31 473.45,638.31 470.70,636.53 C469.16,635.52 468.10,634.17 468.35,633.52 C468.60,632.87 468.20,632.33 467.45,632.33 C466.70,632.33 466.37,632.82 466.71,633.42 C467.04,634.01 466.21,633.49 464.85,632.25 C461.42,629.13 461.06,629.39 462.25,634.10 C462.89,636.61 462.93,638.45 462.36,638.85 C461.03,639.78 461.27,640.80 464.30,647.28 L 464.53 647.78 C466.45,651.88 467.11,653.28 466.69,653.76 C466.48,654.00 465.98,654.00 465.23,654.00 C465.17,654.00 465.11,654.00 465.05,654.00 C463.98,654.00 462.01,652.54 460.69,650.75 ZM 550.00 939.03 C580.64,937.75 608.21,936.07 617.50,934.93 C644.63,931.58 650.20,930.80 656.50,929.49 C666.97,927.31 675.36,924.53 677.89,922.40 C680.38,920.31 682.99,916.27 681.10,917.44 C680.49,917.81 680.00,917.69 680.00,917.18 C680.00,915.77 674.94,915.07 672.22,916.11 C670.52,916.75 668.84,916.54 666.41,915.39 C663.58,914.05 662.22,913.96 658.55,914.88 C649.83,917.08 652.75,915.80 669.50,910.09 C702.91,898.69 731.14,886.65 756.62,872.72 C731.53,886.48 704.12,898.19 669.50,910.17 C660.15,913.41 653.85,915.78 655.50,915.44 C657.15,915.09 661.42,914.14 665.00,913.33 C667.97,912.64 669.65,912.23 671.35,912.06 C673.82,911.81 676.34,912.06 682.96,912.71 C683.45,912.76 683.96,912.81 684.50,912.86 C695.06,913.90 702.10,915.74 702.72,917.64 C702.93,918.27 700.63,920.33 697.61,922.22 C693.28,924.93 689.63,926.13 680.31,927.91 C673.81,929.15 665.58,930.79 662.00,931.55 C653.71,933.31 625.64,935.86 579.36,939.03 C564.54,940.05 495.35,940.97 483.50,940.31 C459.22,938.96 427.09,936.80 420.00,936.04 C388.17,932.62 381.21,931.77 370.50,929.99 C363.90,928.89 355.63,927.53 352.13,926.95 C344.29,925.67 331.73,919.61 332.19,917.33 C332.90,913.74 350.55,909.86 367.20,909.65 C370.88,909.60 373.77,909.44 373.63,909.30 C373.51,909.18 369.10,907.33 363.12,904.89 C368.30,906.97 372.68,908.74 373.82,909.22 C375.29,909.83 376.84,910.43 377.25,910.54 C377.66,910.66 378.34,910.86 378.75,910.99 C379.16,911.13 379.84,911.18 380.25,911.12 C381.58,910.91 381.05,912.24 379.25,913.61 C378.29,914.34 375.00,914.95 371.94,914.97 C368.87,914.99 365.55,915.61 364.51,916.37 C362.70,917.70 362.70,917.80 364.69,920.33 C365.81,921.76 367.02,922.65 367.37,922.30 C367.72,921.95 368.00,922.14 368.00,922.71 C368.00,923.98 374.40,925.69 386.50,927.65 C391.45,928.45 399.55,929.77 404.50,930.59 C409.45,931.41 417.10,932.47 421.50,932.95 C425.90,933.44 433.33,934.51 438.00,935.34 C442.67,936.17 458.65,937.37 473.50,938.00 C488.35,938.63 501.40,939.27 502.50,939.43 C506.85,940.07 529.59,939.88 550.00,939.03 ZM 438.63 299.25 C441.11,301.31 444.00,303.00 445.05,303.00 C446.71,303.00 446.81,302.68 445.84,300.55 C444.79,298.24 441.34,296.08 436.25,294.54 C432.84,293.52 433.64,295.09 438.63,299.25 ZM 458.92 615.12 C457.42,608.81 455.02,603.36 455.01,606.25 C455.00,607.21 454.55,608.00 454.00,608.00 C453.45,608.00 453.00,608.72 453.00,609.61 C453.00,610.65 453.55,611.00 454.57,610.61 C455.79,610.14 455.98,610.48 455.46,612.13 C455.01,613.55 455.15,614.03 455.89,613.57 C456.62,613.12 456.89,614.00 456.72,616.20 C456.56,618.06 457.11,620.27 457.97,621.27 C460.16,623.84 460.49,621.71 458.92,615.12 ZM 355.44 445.53 C357.58,447.15 361.00,447.51 361.00,446.11 C361.00,444.97 358.47,443.99 355.67,444.03 C353.55,444.06 353.54,444.10 355.44,445.53 ZM 870.23 780.40 C898.15,747.55 919.02,712.15 927.18,681.68 C918.90,712.61 898.15,747.70 870.23,780.40 ZM 760.93 420.53 C761.97,419.51 762.99,418.47 764.00,417.40 C773.44,407.43 781.20,395.49 786.99,382.34 C783.90,389.51 780.27,396.30 776.15,402.49 C771.91,408.87 766.74,414.96 760.93,420.53 ZM 238.53 832.59 C204.60,805.19 176.47,776.78 152.72,745.66 C176.50,776.64 205.04,805.54 238.53,832.59 ZM 655.80 451.98 C664.06,452.89 676.46,453.12 686.74,452.66 C676.00,453.42 665.00,453.23 655.80,451.98 ZM 556.60 369.50 C553.14,358.62 551.47,350.25 550.88,339.78 C552.25,357.58 556.98,374.11 564.72,388.81 C561.46,382.68 558.74,376.22 556.60,369.50 ZM 653.04 300.17 C653.33,297.93 653.43,295.70 653.42,293.00 C653.42,289.46 652.99,285.46 652.34,281.93 C652.45,282.36 652.55,282.80 652.64,283.24 C653.86,288.99 654.05,294.05 653.04,300.17 ZM 853.07 194.52 C863.66,207.26 873.61,220.59 883.29,235.00 C874.08,221.47 863.80,207.64 853.07,194.52 ZM 589.26 670.65 C591.37,666.04 592.36,661.34 592.71,655.00 C592.82,653.06 592.84,651.12 592.76,649.20 C593.18,656.27 592.45,662.97 590.45,668.00 C590.11,668.85 589.71,669.73 589.26,670.65 ZM 316.58 883.27 C288.46,868.35 260.42,850.27 238.53,832.59 C260.10,850.01 288.57,868.35 316.58,883.27 ZM 554.78 708.95 C564.10,701.84 572.34,694.03 579.09,685.82 C573.59,692.57 566.87,699.38 560.10,704.82 C558.35,706.23 556.58,707.60 554.78,708.95 ZM 707.97 449.79 C715.93,447.89 723.42,445.29 730.47,441.96 C725.50,444.40 720.46,446.40 715.43,447.90 C713.10,448.60 710.60,449.22 707.97,449.79 ZM 621.71 441.99 C628.85,445.08 637.38,448.01 644.90,449.92 C636.84,448.01 629.08,445.34 621.71,441.99 ZM 563.57 604.67 C557.37,603.40 550.57,603.99 545.50,606.37 C551.31,603.64 557.58,603.18 563.57,604.67 ZM 536.69 560.50 C534.20,561.73 530.39,564.66 527.16,567.58 C527.44,567.28 527.74,566.95 528.07,566.58 C529.73,564.68 533.59,561.97 536.69,560.50 ZM 684.30 358.39 C678.81,358.91 672.85,358.04 667.50,355.62 C666.65,355.23 665.82,354.82 665.01,354.37 C669.81,356.89 675.28,358.35 681.02,358.42 C682.26,358.43 683.34,358.42 684.30,358.39 ZM 922.57 325.70 C922.39,328.16 922.05,330.60 921.55,333.04 C920.14,340.03 917.93,346.18 914.70,351.91 C915.02,351.30 915.34,350.67 915.67,350.00 C919.63,341.93 921.94,333.82 922.57,325.70 ZM 274.83 813.50 C276.76,815.06 278.56,816.19 279.87,816.72 C278.14,816.13 275.39,814.34 272.16,811.63 C271.81,811.35 271.47,811.07 271.13,810.80 C272.43,811.67 273.75,812.62 274.83,813.50 ZM 467.49 745.44 C478.41,743.79 489.39,741.11 500.67,737.38 C501.36,737.15 502.04,736.92 502.73,736.69 C491.21,740.74 479.39,743.68 467.49,745.44 ZM 904.47 269.02 C909.71,278.25 913.73,286.34 916.64,293.65 C913.63,286.34 909.49,277.99 904.47,269.02 ZM 668.27 583.75 C665.47,575.33 661.65,566.74 657.73,560.50 C661.93,567.18 665.57,575.34 668.27,583.75 ZM 673.03 614.72 C673.45,612.35 673.29,609.32 672.65,602.72 C673.08,606.01 673.32,609.17 673.33,612.14 C673.33,612.95 673.22,613.84 673.03,614.72 ZM 665.65 618.44 C667.86,620.65 669.26,621.32 670.40,620.47 C670.06,620.81 669.72,621.00 669.40,621.00 C668.41,621.00 667.11,620.07 665.65,618.44 ZM 702.74 346.53 C704.40,342.67 705.26,337.58 705.68,330.50 C705.22,338.27 704.45,342.76 702.74,346.53 ZM 587.93 627.51 C586.20,623.47 584.05,619.78 581.57,616.59 C583.44,618.90 585.10,621.49 586.50,624.34 C587.01,625.37 587.49,626.43 587.93,627.51 ZM 700.59 350.28 C698.81,352.81 696.17,354.80 693.03,356.19 C693.19,356.11 693.36,356.03 693.52,355.94 C696.53,354.39 698.83,352.62 700.59,350.28 ZM 647.29 328.52 C647.46,330.82 647.90,333.06 648.58,335.21 C647.90,333.17 647.45,331.06 647.26,328.93 C647.09,327.03 647.08,325.37 647.32,323.46 C647.15,325.15 647.15,326.73 647.29,328.52 ZM 413.00 773.48 C407.23,772.56 401.15,771.68 399.50,771.52 C401.15,771.68 407.00,772.50 412.50,773.35 C413.78,773.55 415.07,773.74 416.33,773.93 C415.13,773.79 414.02,773.64 413.00,773.48 ZM 447.06 775.20 C452.51,775.07 457.71,774.86 461.00,774.62 C461.63,774.57 462.27,774.52 462.92,774.46 C462.10,774.54 461.30,774.61 460.50,774.67 C456.48,774.97 451.86,775.15 447.06,775.20 ZM 625.65 309.05 C626.67,307.29 628.68,304.27 630.34,302.00 C630.87,301.28 631.37,300.59 631.85,299.93 C629.29,303.48 626.72,307.27 625.65,309.05 ZM 750.93 219.47 C752.10,219.40 752.74,219.21 753.00,218.89 C753.30,218.52 755.15,217.59 757.29,216.63 C754.96,217.69 753.00,218.72 753.00,219.04 C753.00,219.32 752.19,219.45 750.93,219.47 ZM 249.98 790.01 C252.49,792.19 254.90,794.38 256.33,795.76 C255.86,795.35 255.41,794.94 254.97,794.53 C253.67,793.33 251.92,791.75 249.98,790.01 ZM 620.39 315.58 C622.15,313.85 623.96,311.77 625.01,310.15 C623.96,311.84 622.39,313.68 620.39,315.58 ZM 761.28 214.96 C762.75,214.39 763.96,213.99 764.38,213.98 C764.99,213.97 766.55,212.86 767.83,211.51 C766.55,212.86 765.06,213.97 764.52,213.98 C764.01,213.99 762.77,214.39 761.28,214.96 ZM 278.76 813.04 C276.92,811.55 274.61,809.94 272.75,808.95 C274.84,810.07 277.06,811.61 278.76,813.04 ZM 391.08 740.67 C395.41,741.76 399.66,742.71 403.86,743.54 C399.58,742.71 395.32,741.75 391.08,740.67 ZM 248.00 796.80 C247.14,796.46 241.34,792.05 234.90,786.99 C241.34,792.05 247.15,796.46 248.00,796.79 C248.66,797.05 251.24,798.62 254.21,800.56 C251.14,798.59 248.62,797.04 248.00,796.80 ZM 263.71 801.81 C263.86,801.91 264.00,802.00 264.14,802.09 C264.73,802.47 265.30,802.85 265.82,803.22 C265.63,803.10 265.44,802.98 265.25,802.86 C264.83,802.61 264.31,802.25 263.71,801.81 ZM 481.49 771.27 C489.55,769.37 498.18,766.75 506.90,763.53 C498.12,766.77 489.56,769.38 481.49,771.27 ZM 362.08 738.35 C362.55,738.55 363.02,738.76 363.50,738.96 C365.08,739.63 366.82,740.32 368.70,741.01 C366.84,740.33 365.09,739.65 363.50,738.98 C363.16,738.84 362.67,738.62 362.08,738.35 ZM 295.85 755.50 C296.41,755.71 296.94,755.94 297.42,756.18 C297.73,756.32 298.02,756.46 298.30,756.59 C297.92,756.42 297.51,756.24 297.07,756.03 C296.66,755.84 296.25,755.66 295.85,755.50 ZM 657.95 605.54 C658.70,607.23 659.56,608.98 660.43,610.63 C659.58,609.05 658.75,607.34 657.95,605.54 ZM 260.16 804.44 C261.36,805.19 262.53,805.90 263.58,806.52 C262.59,805.95 261.42,805.24 260.16,804.44 ZM 835.62 174.69 C836.58,175.73 837.54,176.77 838.49,177.81 C837.54,176.77 836.58,175.73 835.62,174.69 Z" fill="rgb(240,125,137)"/>
<path d="M 0.00 512.00 L 0.00 0.00 L 512.00 0.00 L 1024.00 0.00 L 1024.00 512.00 L 1024.00 1024.00 L 512.00 1024.00 L 0.00 1024.00 L 0.00 512.00 ZM 579.36 939.03 C625.64,935.86 653.71,933.31 662.00,931.55 C665.58,930.79 673.81,929.15 680.31,927.91 C689.63,926.13 693.28,924.93 697.61,922.22 C700.63,920.33 702.93,918.27 702.72,917.64 C702.10,915.74 695.06,913.90 684.50,912.86 C671.72,911.60 672.61,911.58 665.00,913.33 C661.42,914.14 657.15,915.09 655.50,915.44 C653.85,915.78 660.15,913.41 669.50,910.17 C719.60,892.83 754.62,876.06 789.32,852.81 C855.36,808.54 912.07,738.15 927.19,681.66 C930.40,669.65 930.38,651.32 927.15,641.01 C922.76,627.03 916.69,617.97 906.62,610.34 C887.65,595.97 862.36,593.08 837.50,602.46 C814.70,611.05 797.39,627.41 776.61,659.98 C756.07,692.18 724.84,720.31 687.94,739.85 C677.30,745.48 662.00,752.37 662.00,751.51 C662.00,751.31 662.64,750.51 663.42,749.73 C666.09,747.06 673.34,734.49 678.55,723.50 C699.78,678.75 702.95,626.76 686.92,586.28 C682.89,576.10 673.45,560.33 665.96,551.27 C624.34,500.91 543.40,490.00 489.95,527.55 C454.67,552.33 434.32,592.57 436.35,633.50 C437.91,664.91 452.85,685.00 477.75,689.19 C501.30,693.15 522.87,677.35 527.16,652.99 C527.99,648.27 527.97,644.19 527.07,636.81 C525.91,627.23 525.95,626.82 528.15,623.22 C532.08,616.79 540.30,608.81 545.50,606.37 C551.65,603.48 560.37,603.23 567.43,605.75 C582.89,611.24 593.96,632.82 592.71,655.00 C592.20,664.21 590.35,669.96 585.65,677.00 C568.51,702.69 536.24,725.62 500.67,737.38 C462.98,749.84 428.77,750.61 388.16,739.91 C344.35,728.37 294.24,696.75 266.96,663.44 C233.40,622.46 214.79,565.45 218.98,516.50 C223.01,469.46 241.45,430.48 274.47,399.23 C300.56,374.54 336.28,357.97 363.29,358.02 C380.87,358.05 392.22,362.19 401.27,371.86 C421.11,393.07 413.96,422.55 387.07,430.41 C379.01,432.77 372.97,432.38 357.57,428.50 C342.13,424.61 336.65,424.26 327.72,426.57 C318.04,429.08 312.05,432.69 304.00,440.88 C294.17,450.87 290.95,458.17 290.27,472.00 C288.35,510.84 317.90,534.18 368.66,533.92 C384.88,533.84 400.15,532.19 409.50,529.52 C412.80,528.57 416.17,527.65 417.00,527.48 C417.83,527.30 422.10,525.74 426.50,524.00 C430.90,522.26 435.74,520.37 437.25,519.80 C438.76,519.23 440.00,518.41 440.00,517.99 C440.00,517.56 441.12,516.93 442.50,516.59 C443.88,516.24 445.00,515.52 445.00,514.98 C445.00,514.44 445.67,514.00 446.50,514.00 C447.33,514.00 448.00,513.55 448.00,513.00 C448.00,512.45 448.67,512.00 449.50,512.00 C450.33,512.00 451.00,511.55 451.00,511.00 C451.00,510.45 451.63,510.00 452.39,510.00 C453.16,510.00 454.06,509.30 454.39,508.44 C454.72,507.58 455.42,507.14 455.94,507.46 C456.47,507.79 457.39,507.14 457.99,506.03 C458.58,504.91 459.53,504.00 460.10,504.00 C461.14,504.00 463.09,502.25 473.51,492.00 C484.13,481.55 494.70,462.97 499.56,446.21 C506.93,420.77 506.91,389.22 499.50,360.01 C489.04,318.72 459.74,282.61 423.85,266.77 C404.17,258.09 379.36,254.13 355.82,255.91 C342.55,256.91 324.95,259.82 315.56,262.56 L 310.62 264.00 L 313.56 260.92 C321.95,252.10 353.49,230.85 374.04,220.16 C409.34,201.81 444.41,190.59 484.50,184.82 C498.34,182.83 541.67,183.15 555.66,185.34 C602.41,192.68 640.65,211.59 668.44,241.13 C678.58,251.91 684.91,260.96 691.63,274.31 C701.85,294.60 706.67,313.88 705.68,330.50 C704.78,345.58 701.89,351.64 693.52,355.94 C689.42,358.05 687.24,358.49 681.02,358.42 C663.46,358.22 648.51,344.97 647.29,328.52 C646.93,323.74 647.47,320.48 649.90,312.70 C653.90,299.87 654.59,292.44 652.64,283.24 C647.09,257.02 621.21,240.84 595.53,247.53 C586.84,249.80 580.30,253.69 572.88,261.00 C567.58,266.23 565.25,269.61 561.15,278.01 C552.80,295.13 550.57,306.14 550.62,330.00 C550.65,345.59 552.14,355.45 556.60,369.50 C570.06,411.90 607.08,443.57 652.38,451.45 C670.67,454.64 698.03,453.10 715.43,447.90 C738.66,440.97 762.33,423.26 776.15,402.49 C790.49,380.93 798.94,352.17 798.98,324.75 C798.99,318.84 799.37,314.00 799.82,314.00 C800.27,314.00 802.15,317.49 804.00,321.75 C816.29,350.10 822.13,360.05 831.93,369.30 C845.48,382.08 862.00,386.75 878.47,382.47 C887.77,380.04 893.86,376.21 903.00,367.04 C913.20,356.79 918.84,346.46 921.55,333.04 C925.62,312.97 919.47,293.35 898.09,258.19 C874.14,218.78 849.73,187.77 818.84,157.48 C800.46,139.46 794.46,134.14 778.00,121.32 C755.13,103.50 733.76,90.21 706.00,76.56 C640.66,44.42 570.51,29.35 495.50,31.33 C369.69,34.66 244.54,97.49 160.50,199.50 C119.76,248.96 91.36,305.55 75.18,369.50 C57.37,439.91 56.44,515.92 72.60,580.50 C75.70,592.90 82.10,614.33 82.90,615.00 C83.23,615.28 83.66,616.40 83.85,617.50 C84.04,618.60 84.49,619.72 84.85,620.00 C85.21,620.28 85.63,621.62 85.78,623.00 C85.93,624.38 86.50,625.65 87.04,625.84 C87.57,626.02 87.76,626.58 87.45,627.09 C87.14,627.59 87.34,628.00 87.91,628.00 C88.47,628.00 88.68,628.67 88.36,629.50 C88.05,630.33 88.27,631.00 88.86,631.00 C89.45,631.00 89.68,631.67 89.36,632.50 C89.05,633.33 89.31,634.00 89.95,634.00 C90.59,634.00 90.84,634.45 90.50,635.00 C90.16,635.55 90.34,636.00 90.91,636.00 C91.47,636.00 91.68,636.67 91.36,637.50 C91.05,638.33 91.31,639.00 91.95,639.00 C92.59,639.00 92.84,639.45 92.50,640.00 C92.16,640.55 92.39,641.00 93.00,641.00 C93.61,641.00 93.84,641.45 93.50,642.00 C93.16,642.55 93.39,643.00 94.00,643.00 C94.61,643.00 94.84,643.45 94.50,644.00 C94.16,644.55 94.34,645.00 94.91,645.00 C95.47,645.00 95.68,645.67 95.36,646.50 C95.05,647.33 95.31,648.00 95.95,648.00 C96.59,648.00 96.84,648.45 96.50,649.00 C96.16,649.55 96.39,650.00 97.00,650.00 C97.61,650.00 97.84,650.45 97.50,651.00 C97.16,651.55 97.41,652.00 98.05,652.00 C98.69,652.00 98.95,652.67 98.64,653.50 C98.32,654.33 98.53,655.00 99.09,655.00 C99.66,655.00 99.84,655.45 99.50,656.00 C99.16,656.55 99.39,657.00 100.00,657.00 C100.61,657.00 100.84,657.45 100.50,658.00 C100.16,658.55 100.28,659.00 100.77,659.00 C101.27,659.00 101.67,659.59 101.67,660.31 C101.67,661.03 104.50,667.22 107.97,674.06 C139.17,735.61 180.33,785.58 238.53,832.59 C271.47,859.20 318.35,886.72 358.43,902.97 C366.65,906.31 373.48,909.15 373.63,909.30 C373.77,909.44 370.88,909.60 367.20,909.65 C350.55,909.86 332.90,913.74 332.19,917.33 C331.73,919.61 344.29,925.67 352.13,926.95 C355.63,927.53 363.90,928.89 370.50,929.99 C381.21,931.77 388.17,932.62 420.00,936.04 C427.09,936.80 459.22,938.96 483.50,940.31 C495.35,940.97 564.54,940.05 579.36,939.03 ZM 274.83 813.50 C272.45,811.57 268.92,809.27 267.00,808.38 C265.08,807.49 260.35,804.66 256.50,802.08 C252.65,799.50 248.82,797.12 248.00,796.79 C246.29,796.12 224.80,779.21 218.00,773.19 C206.68,763.18 200.93,757.70 190.48,747.00 C184.31,740.67 178.05,734.15 176.56,732.50 C175.08,730.85 172.41,727.92 170.62,726.00 C167.34,722.46 160.77,713.83 155.80,706.50 C151.15,699.66 154.65,701.46 162.75,710.07 C180.53,728.98 196.02,744.15 204.00,750.47 C225.27,767.31 230.00,771.20 230.00,771.88 C230.00,772.28 234.15,776.18 239.22,780.55 C244.29,784.92 251.38,791.21 254.97,794.53 C258.56,797.85 263.19,801.60 265.25,802.86 C267.31,804.13 269.00,805.57 269.00,806.06 C269.00,806.56 270.69,807.86 272.75,808.95 C276.49,810.94 282.00,815.41 282.00,816.45 C282.00,817.98 278.68,816.62 274.83,813.50 ZM 425.50 775.20 C423.85,775.03 418.00,774.20 412.50,773.35 C407.00,772.50 401.15,771.68 399.50,771.52 C397.85,771.36 392.23,770.49 387.00,769.58 C381.77,768.68 373.45,767.51 368.50,766.98 C363.55,766.46 358.15,765.72 356.50,765.33 C354.85,764.95 352.65,764.75 351.61,764.90 C350.57,765.05 349.45,764.76 349.11,764.25 C348.78,763.74 346.02,762.84 343.00,762.24 C338.70,761.39 337.21,761.43 336.18,762.43 C335.11,763.46 333.99,763.42 330.18,762.19 C327.61,761.36 324.83,760.46 324.00,760.19 C323.17,759.93 319.93,759.61 316.78,759.49 C313.63,759.37 310.03,758.60 308.78,757.78 C307.07,756.66 305.93,756.55 304.20,757.32 C302.40,758.13 300.93,757.88 297.42,756.18 C294.96,754.98 291.38,754.00 289.47,754.00 C286.44,754.00 286.00,753.69 286.00,751.50 C286.00,748.84 284.82,747.16 278.57,741.00 C275.27,737.75 274.32,737.29 272.67,738.18 C271.00,739.07 270.80,738.97 271.36,737.51 C271.82,736.32 271.61,735.93 270.71,736.28 C269.99,736.56 268.34,735.68 267.04,734.34 C265.45,732.69 264.46,732.26 263.98,733.03 C262.97,734.66 258.82,727.63 259.60,725.61 C259.95,724.67 259.71,724.00 259.00,724.00 C258.33,724.00 258.04,723.33 258.36,722.50 C258.68,721.67 258.61,721.00 258.22,721.00 C257.82,720.99 257.42,719.39 257.32,717.43 C257.22,715.47 256.61,713.24 255.98,712.48 C255.35,711.71 255.11,710.64 255.45,710.09 C255.79,709.54 254.92,708.34 253.53,707.43 C252.14,706.52 251.00,704.99 251.00,704.04 C251.00,703.09 250.11,701.51 249.02,700.52 C247.71,699.33 247.33,698.24 247.88,697.25 C248.48,696.18 246.85,693.87 241.89,688.81 C238.13,684.99 233.62,679.30 231.86,676.18 C230.10,673.05 226.57,668.03 224.01,665.00 C219.12,659.20 210.68,645.22 209.52,641.00 C209.14,639.62 206.63,633.47 203.93,627.31 C198.04,613.87 193.66,599.43 194.84,597.32 C195.52,596.10 196.31,596.46 199.09,599.24 C202.86,603.00 213.06,616.69 219.27,626.30 C229.43,642.02 267.79,682.39 281.65,691.94 C283.93,693.51 286.63,695.55 287.65,696.48 C291.67,700.14 307.77,710.20 326.50,720.76 C331.08,723.34 358.99,737.09 363.50,738.98 C381.52,746.54 418.69,755.16 441.41,757.05 C453.87,758.08 491.64,756.84 505.00,754.96 C513.17,753.80 520.00,753.75 520.00,754.83 C520.00,756.21 511.59,761.80 506.90,763.53 C490.15,769.72 473.79,773.67 461.00,774.62 C452.22,775.27 429.84,775.64 425.50,775.20 ZM 664.98 617.75 C663.29,615.96 660.13,610.47 657.95,605.54 C654.87,598.56 652.62,595.18 647.75,590.21 C638.40,580.66 637.69,580.00 636.84,580.00 C636.41,580.00 635.49,578.90 634.78,577.57 C634.08,576.23 631.92,573.99 630.00,572.59 C625.22,569.13 612.69,563.08 608.74,562.33 C606.96,561.99 605.05,561.40 604.50,561.00 C602.78,559.78 596.83,557.86 588.00,555.68 C576.68,552.90 552.82,553.06 546.50,555.97 C544.30,556.98 539.94,559.00 536.82,560.45 C533.69,561.89 529.76,564.65 528.07,566.58 C525.66,569.32 524.63,569.87 523.25,569.13 C522.29,568.62 521.11,568.27 520.64,568.35 C520.17,568.43 519.05,566.97 518.14,565.10 C516.37,561.44 512.00,558.90 512.00,561.53 C512.00,563.46 509.38,563.43 508.64,561.50 C508.32,560.67 508.50,560.00 509.03,560.00 C510.60,560.00 510.14,557.27 508.46,556.62 C506.52,555.88 503.05,548.37 503.02,544.84 C502.95,536.41 531.56,520.55 553.16,517.04 C562.42,515.54 584.41,515.77 591.52,517.45 C620.76,524.35 644.87,540.03 657.73,560.50 C664.75,571.67 671.42,590.35 672.59,602.12 C673.60,612.28 673.53,614.31 672.05,617.89 C670.41,621.84 668.82,621.81 664.98,617.75 ZM 874.00 615.00 C874.00,613.73 877.03,613.73 879.00,615.00 C880.14,615.74 879.72,615.97 877.25,615.98 C875.46,615.99 874.00,615.55 874.00,615.00 ZM 355.44 445.53 C353.54,444.10 353.55,444.06 355.67,444.03 C358.47,443.99 361.00,444.97 361.00,446.11 C361.00,447.51 357.58,447.15 355.44,445.53 ZM 669.94 375.70 C660.11,371.81 647.74,363.59 642.86,357.70 C639.10,353.16 634.42,344.24 635.33,343.34 C635.64,343.03 639.85,346.33 644.69,350.67 C654.83,359.74 662.15,364.08 677.25,369.97 C687.50,373.96 690.03,376.01 686.42,377.39 C683.18,378.64 675.33,377.83 669.94,375.70 ZM 615.47 316.75 C615.86,315.51 616.81,312.31 617.57,309.63 C618.33,306.96 619.42,304.20 619.99,303.51 C620.56,302.82 620.77,301.56 620.44,300.71 C620.11,299.86 620.65,297.93 621.64,296.43 C622.74,294.75 623.31,292.32 623.13,290.10 C622.70,284.98 619.29,275.16 616.40,270.73 C615.05,268.65 613.68,265.66 613.37,264.08 C612.90,261.73 613.19,261.07 614.98,260.51 C622.96,257.97 636.43,266.86 639.84,276.90 C642.41,284.46 641.57,286.70 630.34,302.00 C628.53,304.48 626.30,307.85 625.39,309.50 C623.57,312.83 617.31,319.00 615.76,319.00 C615.19,319.00 615.07,318.05 615.47,316.75 ZM 438.63 299.25 C433.64,295.09 432.84,293.52 436.25,294.54 C441.34,296.08 444.79,298.24 445.84,300.55 C446.81,302.68 446.71,303.00 445.05,303.00 C444.00,303.00 441.11,301.31 438.63,299.25 ZM 745.00 219.26 C739.26,218.81 734.00,216.83 733.97,215.09 C733.95,214.22 732.93,211.46 731.71,208.96 C729.94,205.34 729.64,203.60 730.25,200.46 C730.68,198.28 731.36,194.26 731.76,191.52 C732.46,186.79 732.68,186.50 736.00,185.93 C739.91,185.25 747.00,181.33 747.00,179.83 C747.00,179.30 748.18,177.32 749.62,175.43 C751.06,173.54 751.87,172.00 751.43,172.00 C750.98,172.00 751.49,171.34 752.56,170.53 C753.63,169.72 754.11,169.05 753.63,169.03 C753.15,169.01 753.30,168.35 753.96,167.55 C757.00,163.88 756.91,152.68 753.80,147.33 C751.16,142.81 751.07,142.72 740.26,132.84 C735.60,128.58 729.35,123.98 726.21,122.49 C723.10,121.02 718.97,118.57 717.03,117.06 C715.09,115.54 711.25,113.17 708.50,111.80 C705.75,110.42 699.22,106.54 694.00,103.16 C688.78,99.79 681.80,95.66 678.50,93.97 C671.43,90.37 661.46,81.68 662.50,80.01 C662.88,79.38 663.94,79.15 664.85,79.50 C665.76,79.85 668.30,80.53 670.50,80.99 C672.70,81.46 679.00,83.60 684.50,85.74 C690.00,87.87 696.75,90.22 699.50,90.94 C704.36,92.22 714.57,97.06 733.97,107.26 C743.25,112.15 757.37,121.11 767.71,128.68 C770.58,130.78 776.43,134.96 780.71,137.98 C803.56,154.05 822.67,170.98 826.50,178.54 C827.60,180.72 830.39,185.45 832.71,189.05 C837.93,197.17 842.76,207.53 843.18,211.48 C843.61,215.49 841.18,215.88 836.31,212.57 C834.23,211.15 831.85,209.96 831.02,209.92 C830.18,209.88 827.47,208.55 825.00,206.97 C817.96,202.48 810.74,198.84 808.00,198.40 C806.62,198.18 804.09,197.76 802.36,197.47 C800.42,197.15 796.96,197.78 793.36,199.12 C790.14,200.31 786.38,201.70 785.00,202.21 C783.62,202.72 782.42,203.00 782.33,202.82 C782.24,202.64 781.06,203.53 779.72,204.79 C778.38,206.05 775.68,207.53 773.72,208.07 C771.76,208.61 769.11,210.16 767.83,211.51 C766.55,212.86 764.99,213.97 764.38,213.98 C763.03,214.00 753.71,218.03 753.00,218.89 C752.45,219.56 750.27,219.66 745.00,219.26 Z" fill="rgb(251,252,253)"/>
</g>
</svg>